<?xml version="1.0" encoding="utf-8"?>
<!-- Generator: Adobe Illustrator 24.0.3, SVG Export Plug-In . SVG Version: 6.00 Build 0)  -->
<svg version="1.1" id="Layer_1" xmlns="http://www.w3.org/2000/svg" xmlns:xlink="http://www.w3.org/1999/xlink" x="0px" y="0px"
	 viewBox="0 0 700 900" style="enable-background:new 0 0 700 900;" xml:space="preserve">
<style type="text/css">
	.st0{display:none;}
	.st1{display:inline;fill:#AF7D6F;}
	.st2{display:inline;fill:#10144C;}
	.st3{display:inline;}
	.st4{fill:#292C67;}
	.st5{display:inline;fill:#292C67;}
	.st6{display:inline;fill:#B68173;}
	.st7{display:inline;fill:#C1897A;}
	.st8{display:inline;fill:#262222;}
	.st9{display:inline;fill:#262622;}
	.st10{display:inline;fill:#1D1818;}
	.st11{fill:none;stroke:#000000;stroke-width:3;stroke-miterlimit:10;}
</style>
<g id="Layer_6_2_" class="st0">
	<path class="st1" d="M238.8,486.9c0,0,7.9,75.3-4.3,90.5c-12.2,15.2-18.3,24.4-18.3,24.4s7.3,195,153.8,211.4
		c21.6,3.4,64.8,3.4,77.6-41.2c8.1-21.6,9.5-54,9.5-54l19.8-46.9C477,671,254.7,428.6,238.8,486.9"/>
</g>
<g id="Layer_7_2_" class="st0">
	<path class="st2" d="M464.1,701.5l-7,16.5c0,0-4.5,65.5-25.5,81.2c-21,15.6-68.3,24.8-127.1-9.4c-58.8-34.3-91.2-176-88.3-187.9
		c4.9-6.9,7.3-10.1,7.3-10.1s-2.3-5.9-11.9,3s-24.4,28.1-32.6,32.1s-12.5,4.1-12.5,4.1s-8.5,59.6,23.7,112.7s60.3,84.2,75.9,94.2
		c15.6,10,138.1,30.7,187.5-10C463.2,819.5,475.8,714.3,464.1,701.5z"/>
	<g class="st3">
		<path class="st4" d="M166.5,630.8c0,0,0,0.1,0,0.3C167.3,630.6,166.5,630.8,166.5,630.8z"/>
		<path class="st4" d="M615.7,750.5c-17-25.3-36.6-23.7-45.9-26.8c-9.3-3.1-50.5-20.6-57.8-21.7s-38.8-22.2-38.8-22.2l-9.2,21.7
			c0,0,3.1,107.8-19.6,130.5c-22.7,22.7-177.9,0-177.9,0s-41.8-35.1-72.7-82.5c-29.9-45.8-27.5-113.7-27.3-118.4
			c-1,0.6-4.6,2.2-15.5,6.4c-19.6,7.7-32.5,20.1-59.8,33.6S28.1,716,28.1,716v49.8l183.5,86.7c109.2,0,218.5,0,327.7,0L615.7,750.5z
			"/>
	</g>
	<path class="st5" d="M702.4,787.3"/>
	<path class="st5" d="M645.7,823"/>
</g>
<g id="Layer_2_1_" class="st0">
	<path class="st6" d="M259.4,486.8l17.9,58.4c0,0,6.7,28.1,45.4,49.6c38.7,21.5,111.1,67,111.1,67s12.4,11.3,43.3,10.3
		c30.9-1.1,51-7.4,67.4-38.6c16.4-31.3,41.8-59.7,52.5-88.6s20.4-49.6,20.4-49.6s7.8-13,8.8-32.3s-0.8-38.2-5.7-55.7
		s3.6-34.2,3.6-34.2s2.7-5.9,1.3-29.8c-1.5-23.9-24.9-93-34.6-110.2c-9.7-17.2-41-53.9-73-62.7c-32-8.8-189.2,27.3-189.2,27.3
		l-58.3,111.2l-6.3,95.9l-35.1-54.9c0,0-28.2-14.1-46.4-5.3c-18.2,8.8-20.7,53.6-8.1,74.6c12.5,21,26.3,36,26.3,36s11.3,7.8,12.8,16
		C215,479.1,234.4,493.5,259.4,486.8z"/>
</g>
<g id="Layer_8_2_" class="st0">
	<path class="st7" d="M557.9,199.3c0,0-46.3,26.9-109.8,35.9s-75.4,58.3-75.4,58.3s147.9-31.4,153.1,40.3s-41.8,115-41.8,115
		s-15.7,29.8,10.5,29.1c26.1-0.7,30.6-11.2,41.8,5.3s21.7,0,21.7,0s12.7-4.1,7.5,7.3c-5.2,11.4,20.3-9.9,13.4-29.7
		c-6.9-19.8-12-138.9-7.5-140.4s35.5-8.2,45.4-2.2C626.6,324,582.7,187.3,557.9,199.3z"/>
	<path class="st7" d="M624.9,451.8c0,0-1.7,30.1-20.1,67c-18.4,36.8-20.9,60.3-41,79.5c-20.1,19.3-25.1,62.8-46,67.8
		c-21.3-10-36-20.8-36-20.8s45.2-33.6,44.4-52c11.7-4.4,31-15.9,38.5-34.3c7.5-18.4-16.7-40.2-38.5-31
		c11.7-20.9,31.8-22.6,31.8-22.6s14.2-42.7,32.7,1.7C619.2,477,624.9,451.8,624.9,451.8z"/>
	<path class="st7" d="M466,671.1l-93.4,141.6c0,0,34.3,0.4,46.7-6.6C431.7,799.1,477,671,477,671"/>
</g>
<g id="Layer_3_2_" class="st0">
	<path class="st8" d="M228.1,351.3l42.4,80.5l11.4-40.3l3.8-92.2l47.7-39.7l3.4-62.2c0,0-110.7-35.1-146.9,13.7
		c-4.2,31.3-21,141.6-22.1,156.5c0,0,14.1-31.7,46.6-14.9L228.1,351.3z"/>
	<path class="st9" d="M553.3,189.6c6.4,5,13,11,19.4,18.3c29.9,34.1,35.6,74.6,36.8,95.2c12.4,28.1,13.4,19.6,16.4,42.2
		c2.9,22.6,8.8-49.7,8.8-49.7c-0.4-10.6-2.7-36.2-20.3-61.6C592.9,203,562.8,192.5,553.3,189.6z"/>
</g>
<g id="Layer_5_2_" class="st0">
	<path class="st3" d="M177.2,346.2c0,0-4.9-9.8,48.6-14.5s151.7-14,151.7-14S479.3,293.9,521,340c25.6-1.3,47,5.3,48.3,6.2
		c1.3,0.9,57.5-34.3,115.8,14.9c0,11.1,0,22.9,0,22.9l-8,6.9c0,0-15.6,71.5-61,69.7s-61.7-38.3-66.2-81.5
		c10.5-14.9,13.8-22.1,13.8-22.1s-2-6.3-20.6-6.9c-18.5-0.6-19.3,3.4-19.3,3.4s-2.2,8.8,5.1,16.3c0.1,7.7-2.7,11.8-2.7,11.8
		s-27.8,63.2-76.1,59.6c-48.3-3.6-65.1-29.3-66.8-66c-1-22.4-3-29.9-12.2-29.9s-149.6,4.3-149.6,4.3l-43,2L177.2,346.2z"/>
</g>
<g id="Layer_2" class="st0">
	<path class="st10" d="M167.9,198.8c0,0,32.7,29,100.8,13.8s140-22.9,190.9-22.4s128.5,17.1,147.9-7.2
		c19.4-24.4,20.4-73.2-54.2-111.3s-176.7-30-251.9,10.9S167.5,176.9,167.9,198.8z"/>
</g>
<g id="Layer_9_2_">
	<polygon class="st11" points="539.5,672.1 487.5,672.1 291.3,565.6 268.7,462 294.2,404 300.1,313.4 405.5,207.2 567.9,212.8 
		624.8,330.8 602.3,407.8 634.7,481 597.4,573.3 	"/>
	<path class="st11" d="M291.3,565.6c29.5-38.5,59-77,88.4-115.5c35.9,74,71.9,148,107.8,222l37.6-98.9l14.4,98.9l56.9-154l38.2-37.1
		l-32.7-1.4l-38.7-104.4l-59.6,96.2c-41.4-7.1-82.7-14.1-124.1-21.2c-28.5-15.4-57-30.7-85.5-46.1l94.2-72.8l17.1-124l157.8,168
		c1.5-54.1,3.1-108.2,4.6-162.4"/>
	<polygon class="st11" points="525.1,573.3 503.8,471.3 602,479.6 	"/>
	<polygon class="st11" points="244.2,471.3 276.7,573.3 473.3,680.8 419.3,807.1 372.6,813.7 268.7,742.7 225.1,603.5 	"/>
	<line class="st11" x1="276.7" y1="573.3" x2="223.5" y2="592.6"/>
	<path class="st11" d="M463.7,675.5c-30.4,46.1-60.7,92.1-91.1,138.2l-103.9-71c50.3,0,100.5,0,150.8,0"/>
	<polygon class="st11" points="216.3,367.8 252.4,432.8 229.6,471.3 191.4,420.5 182,380.2 198.3,360.9 	"/>
	<polyline class="st11" points="229.6,471.3 216.3,399.5 201,399.5 	"/>
	<polygon class="st11" points="201,219.4 182,330 232.6,324.5 263.9,404.6 268.7,285.6 322,250.8 320.5,212.6 	"/>
	<polygon class="st11" points="320.5,212.6 229.6,253.5 182,330 268.7,285.6 	"/>
	<polygon class="st11" points="201,194.3 327.1,187.9 414.4,176.3 546.3,176.3 571.3,185.3 602,176.3 607.5,144.6 577,94.4 
		503.8,58.8 441.6,54.4 357.7,69 278.3,110.3 	"/>
	<polyline class="st11" points="327.1,187.9 415.8,107.3 571.3,185.3 607.5,144.6 532.5,112.6 415.8,107.3 201,194.3 330.7,107.3 
		503.8,58.8 532.5,112.6 577,94.4 	"/>
	<polyline class="st11" points="330.7,107.3 335.7,139.7 281.1,190.2 	"/>
	<polygon class="st11" points="473.3,680.8 440.5,847.2 552.9,847.2 615.7,759.7 587,721.8 	"/>
	<line class="st11" x1="615.7" y1="759.7" x2="440.5" y2="847.2"/>
	<polyline class="st11" points="473.3,680.8 519.3,755.5 587,721.8 	"/>
	<polygon class="st11" points="211.1,582.9 211.1,635.3 268.7,785.9 382.3,847.2 192.4,852.9 36.8,764 34.3,718.1 159.3,642.5 	"/>
	<polygon class="st11" points="159.3,642.5 223.5,779 312.4,849.3 268.7,785.9 	"/>
	<polyline class="st11" points="34.3,718.1 150.4,745.9 187.1,701.6 	"/>
	<line class="st11" x1="150.4" y1="745.9" x2="192.4" y2="852.9"/>
</g>
</svg>
