<?xml version="1.0" encoding="utf-8"?>
<!-- Generator: Adobe Illustrator 24.0.3, SVG Export Plug-In . SVG Version: 6.00 Build 0)  -->
<svg version="1.1" id="Layer_1" xmlns="http://www.w3.org/2000/svg" xmlns:xlink="http://www.w3.org/1999/xlink" x="0px" y="0px"
	 viewBox="0 0 50 50" style="enable-background:new 0 0 50 50;" xml:space="preserve">
<style type="text/css">
	.st0{fill:#FFFFFF;}
</style>
<g id="Layer_1_1_">
</g>
<g id="Layer_6">
</g>
<g id="Layer_3">
</g>
<g id="Layer_4">
</g>
<g id="Layer_5">
	<g id="Facebook-7">
		<path id="Facebook-8" class="st0" d="M45.7,1.7H4.3c-1.4,0-2.6,1.1-2.6,2.6v41.4c0,1.4,1.1,2.6,2.6,2.6h22.3v-18h-6.1v-7h6.1v-5.2
			c0-6,3.7-9.3,9-9.3c1.8,0,3.6,0.1,5.4,0.3v6.3h-3.7c-2.9,0-3.5,1.4-3.5,3.4v4.5h7l-0.9,7h-6v18h11.8c1.4,0,2.6-1.1,2.6-2.6V4.3
			C48.2,2.9,47.1,1.8,45.7,1.7z"/>
	</g>
</g>
<g id="Git">
</g>
</svg>
