<?xml version="1.0" encoding="utf-8"?>
<!-- Generator: Adobe Illustrator 24.0.3, SVG Export Plug-In . SVG Version: 6.00 Build 0)  -->
<svg version="1.1" id="Layer_1" xmlns="http://www.w3.org/2000/svg" xmlns:xlink="http://www.w3.org/1999/xlink" x="0px" y="0px"
	 viewBox="0 0 1280 1024" style="enable-background:new 0 0 1280 1024;" xml:space="preserve">
<style type="text/css">
	.st0{display:none;}
	.st1{display:inline;fill:#BC7A71;}
	.st2{fill:#AF7D6F;}
	.st3{fill:#10144C;}
	.st4{fill:#292C67;}
	.st5{fill:#B68173;}
	.st6{fill:#C1897A;}
	.st7{fill:#262222;}
	.st8{fill:#262622;}
	.st9{fill:#1D1818;}
	.st10{fill:none;stroke:#000000;stroke-miterlimit:10;}
	.st11{fill:none;stroke:#231F20;stroke-miterlimit:10;}
</style>
<g id="Layer_1_1_" class="st0">
	
		<image style="display:inline;overflow:visible;enable-background:new    ;" width="960" height="960" xlink:href="../../work/557416C97D1A8E13.jpg"  transform="matrix(1 0 0 1 160 32)">
	</image>
	<path class="st1" d="M160,878.4"/>
</g>
<g id="Layer_6">
	<path class="st2" d="M370.7,649.3c0,0,7.9,75.3-4.3,90.5c-12.2,15.2-18.3,24.4-18.3,24.4s7.3,195,153.8,211.4
		c21.6,3.4,64.8,3.4,77.6-41.2c8.1-21.6,9.5-54,9.5-54l19.8-46.9C608.9,833.4,386.6,591,370.7,649.3"/>
</g>
<g id="Layer_7">
	<path class="st3" d="M596,863.9l-7,16.5c0,0-4.5,65.5-25.5,81.2c-21,15.6-68.3,24.8-127.1-9.4c-58.8-34.3-91.2-176-88.3-187.9
		c4.9-6.9,7.3-10.1,7.3-10.1s-2.3-5.9-11.9,3s-24.4,28.1-32.6,32.1s-12.5,4.1-12.5,4.1s-8.5,59.6,23.7,112.7s60.3,84.2,75.9,94.2
		s138.1,30.7,187.5-10C595.1,981.9,607.7,876.7,596,863.9z"/>
	<g>
		<path class="st4" d="M298.4,793.2c0,0,0,0.1,0,0.3C299.2,793,298.4,793.2,298.4,793.2z"/>
		<path class="st4" d="M747.6,912.9c-17-25.3-36.6-23.7-45.9-26.8c-9.3-3.1-50.5-20.6-57.8-21.7s-38.8-22.2-38.8-22.2l-9.2,21.7
			c0,0,3.1,107.8-19.6,130.5c-22.7,22.7-177.9,0-177.9,0s-41.8-35.1-72.7-82.5c-29.9-45.8-27.5-113.7-27.3-118.4
			c-1,0.6-4.6,2.2-15.5,6.4c-19.6,7.7-32.5,20.1-59.8,33.6S160,878.4,160,878.4v49.8l183.5,86.7c109.2,0,218.5,0,327.7,0
			L747.6,912.9z"/>
	</g>
	<path class="st4" d="M834.3,949.7"/>
	<path class="st4" d="M777.6,985.4"/>
</g>
<g id="Layer_2_1_">
	<path class="st5" d="M391.3,648.2l17.9,58.4c0,0,6.7,28.1,45.4,49.6s111.1,67,111.1,67s12.4,11.3,43.3,10.3
		c30.9-1.1,51-7.4,67.4-38.6c16.4-31.3,41.8-59.7,52.5-88.6s20.4-49.6,20.4-49.6s7.8-13,8.8-32.3s-0.8-38.2-5.7-55.7
		s3.6-34.2,3.6-34.2s2.7-5.9,1.3-29.8c-1.5-23.9-24.9-93-34.6-110.2c-9.7-17.2-41-53.9-73-62.7c-32-8.8-189.2,27.3-189.2,27.3
		l-58.3,111.2l-6.3,95.9l-35.1-54.9c0,0-28.2-14.1-46.4-5.3c-18.2,8.8-20.7,53.6-8.1,74.6c12.5,21,26.3,36,26.3,36s11.3,7.8,12.8,16
		C346.9,640.5,366.3,654.9,391.3,648.2z"/>
</g>
<g id="Layer_8">
	<path class="st6" d="M689.8,361.7c0,0-46.3,26.9-109.8,35.9s-75.4,58.3-75.4,58.3s147.9-31.4,153.1,40.3s-41.8,115-41.8,115
		s-15.7,29.8,10.5,29.1c26.1-0.7,30.6-11.2,41.8,5.3s21.7,0,21.7,0s12.7-4.1,7.5,7.3c-5.2,11.4,20.3-9.9,13.4-29.7
		c-6.9-19.8-12-138.9-7.5-140.4s35.5-8.2,45.4-2.2C758.5,486.4,714.6,349.7,689.8,361.7z"/>
	<path class="st6" d="M756.8,614.2c0,0-1.7,30.1-20.1,67c-18.4,36.8-20.9,60.3-41,79.5c-20.1,19.3-25.1,62.8-46,67.8
		c-21.3-10-36-20.8-36-20.8s45.2-33.6,44.4-52c11.7-4.4,31-15.9,38.5-34.3c7.5-18.4-16.7-40.2-38.5-31
		c11.7-20.9,31.8-22.6,31.8-22.6s14.2-42.7,32.7,1.7C751.1,639.4,756.8,614.2,756.8,614.2z"/>
	<path class="st6" d="M597.9,833.5l-93.4,141.6c0,0,34.3,0.4,46.7-6.6c12.4-7,57.7-135.1,57.7-135.1"/>
</g>
<g id="Layer_3">
	<path class="st7" d="M360,513.7l42.4,80.5l11.4-40.3l3.8-92.2l47.7-39.7l3.4-62.2c0,0-110.7-35.1-146.9,13.7
		c-4.2,31.3-21,141.6-22.1,156.5c0,0,14.1-31.7,46.6-14.9L360,513.7z"/>
	<path class="st8" d="M685.2,352c6.4,5,13,11,19.4,18.3c29.9,34.1,35.6,74.6,36.8,95.2c12.4,28.1,13.4,19.6,16.4,42.2
		c2.9,22.6,8.8-49.7,8.8-49.7c-0.4-10.6-2.7-36.2-20.3-61.6C724.8,365.4,694.7,354.9,685.2,352z"/>
</g>
<g id="Layer_5">
	<path d="M309.1,508.6c0,0-4.9-9.8,48.6-14.5s151.7-14,151.7-14s101.8-23.8,143.5,22.3c25.6-1.3,47,5.3,48.3,6.2
		c1.3,0.9,57.5-34.3,115.8,14.9c0,11.1,0,22.9,0,22.9l-8,6.9c0,0-15.6,71.5-61,69.7s-61.7-38.3-66.2-81.5
		c10.5-14.9,13.8-22.1,13.8-22.1s-2-6.3-20.6-6.9c-18.5-0.6-19.3,3.4-19.3,3.4s-2.2,8.8,5.1,16.3c0.1,7.7-2.7,11.8-2.7,11.8
		s-27.8,63.2-76.1,59.6c-48.3-3.6-65.1-29.3-66.8-66c-1-22.4-3-29.9-12.2-29.9S353.4,512,353.4,512l-43,2L309.1,508.6z"/>
</g>
<g id="Layer_4">
	<path class="st9" d="M697.9,356.9c18.7,4.5,43-6,52-25.4c1.5-3.2,5.1-12.9-0.9-30.9c-14.2-42-59.9-65.6-78.9-73.9
		c-73.5-32.4-147-10.1-177.3-5.1c-50.2,8.2-167.9,85.1-189.7,129.8c0,0-1.4,2.7-3.3,9.8c-2,7.1,76.5,24.7,176.5,0
		C528.4,348.4,679.2,352.5,697.9,356.9z"/>
	<path d="M965,414.2"/>
</g>
<g id="Layer_9">
	<polygon class="st10" points="671.4,833.5 619.4,833.5 423.2,727 400.6,623.4 426.1,565.4 432,474.8 537.4,368.6 699.8,374.2 
		756.7,492.2 734.2,569.2 766.6,642.4 729.3,734.7 	"/>
	<path class="st10" d="M423.2,727c29.5-38.5,59-77,88.4-115.5c35.9,74,71.9,148,107.8,222l37.6-98.9l14.4,98.9l56.9-154l38.2-37.1
		l-32.7-1.4l-38.7-104.4l-59.6,96.2c-41.4-7.1-82.7-14.1-124.1-21.2c-28.5-15.4-57-30.7-85.5-46.1l94.2-72.8l17.1-124l157.8,168
		c1.5-54.1,3.1-108.2,4.6-162.4"/>
	<polygon class="st10" points="657,734.7 635.7,632.7 733.9,641 	"/>
	<polygon class="st10" points="376.1,632.7 408.6,734.7 605.2,842.2 551.2,968.5 504.5,975.1 400.6,904.1 357,764.9 	"/>
	<line class="st10" x1="408.6" y1="734.7" x2="355.4" y2="754"/>
	<path class="st10" d="M595.6,836.9c-30.4,46.1-60.7,92.1-91.1,138.2l-103.9-71c50.3,0,100.5,0,150.8,0"/>
	<polygon class="st10" points="348.2,529.2 384.3,594.2 361.5,632.7 323.3,581.9 313.9,541.6 330.2,522.3 	"/>
	<polyline class="st10" points="361.5,632.7 348.2,560.9 332.9,560.9 	"/>
	<polygon class="st10" points="332.9,380.8 313.9,491.4 364.5,485.9 395.8,566 400.6,447 453.9,412.2 452.4,374 	"/>
	<polygon class="st10" points="452.4,374 361.5,414.9 313.9,491.4 400.6,447 	"/>
	<polygon class="st10" points="332.9,355.7 459,349.3 546.3,337.7 678.2,337.7 703.2,346.7 733.9,337.7 739.4,306 708.9,255.8 
		635.7,220.2 573.5,215.8 489.6,230.4 410.2,271.7 	"/>
	<polyline class="st10" points="459,349.3 547.7,268.7 703.2,346.7 739.4,306 664.4,274 547.7,268.7 332.9,355.7 462.6,268.7 
		635.7,220.2 664.4,274 708.9,255.8 	"/>
	<polyline class="st10" points="462.6,268.7 467.6,301.1 413,351.6 	"/>
	<polygon class="st11" points="605.2,842.2 572.4,1008.6 684.8,1008.6 747.6,921.1 718.9,883.2 	"/>
	<line class="st11" x1="747.6" y1="921.1" x2="572.4" y2="1008.6"/>
	<polyline class="st11" points="605.2,842.2 651.2,916.9 718.9,883.2 	"/>
	<polygon class="st11" points="343,744.3 343,796.7 400.6,947.3 514.2,1008.6 324.3,1014.3 168.7,925.4 166.2,879.5 291.2,803.9 	
		"/>
	<polygon class="st11" points="291.2,803.9 355.4,940.4 444.3,1010.7 400.6,947.3 	"/>
	<polyline class="st11" points="166.2,879.5 282.3,907.3 319,863 	"/>
	<line class="st11" x1="282.3" y1="907.3" x2="324.3" y2="1014.3"/>
</g>
</svg>
