<?xml version="1.0" encoding="utf-8"?>
<!-- Generator: Adobe Illustrator 24.0.3, SVG Export Plug-In . SVG Version: 6.00 Build 0)  -->
<svg version="1.1" id="Layer_1" xmlns="http://www.w3.org/2000/svg" xmlns:xlink="http://www.w3.org/1999/xlink" x="0px" y="0px"
	 viewBox="0 0 50 50" style="enable-background:new 0 0 50 50;" xml:space="preserve">
<style type="text/css">
	.st0{fill-rule:evenodd;clip-rule:evenodd;fill:#FFFFFF;}
	.st1{fill:#FFFFFF;}
</style>
<g id="Layer_1_1_">
</g>
<g id="Layer_6">
</g>
<g id="Layer_3">
</g>
<g id="Layer_4">
</g>
<g id="Layer_5">
</g>
<g id="Git">
	<g id="Github-8_1_">
		<path class="st0" d="M25,1.7C11.9,1.7,1.2,12.4,1.2,25.5c0,10.2,6.6,19.3,16.3,22.6c1.2,0.2,1.6-0.5,1.6-1.1s0-2.5,0-4.4
			c-6.6,1.4-8-2.8-8-2.8C10,37,8.5,36.3,8.5,36.3c-2.2-1.5,0.2-1.4,0.2-1.4c1.5,0.2,2.9,1.1,3.7,2.5c2.1,3.6,5.6,2.6,6.9,2
			c0.1-1.2,0.6-2.3,1.5-3.2c-5.3-0.6-10.9-2.7-10.9-11.8c0-2.4,0.8-4.7,2.5-6.4c-0.7-2.1-0.7-4.3,0.2-6.3c0,0,2-0.6,6.5,2.4
			c3.9-1.1,8-1.1,11.9,0c4.5-3.1,6.5-2.4,6.5-2.4c0.9,2,1,4.2,0.2,6.3c1.6,1.7,2.5,4,2.5,6.4c0,9.2-5.6,11.2-10.9,11.8
			c1.1,1.2,1.7,2.8,1.6,4.4c0,3.2,0,5.7,0,6.5c0,0.6,0.4,1.4,1.6,1.1C45,44,51.7,30.6,47.6,18.1C44.4,8.4,35.3,1.8,25,1.7L25,1.7z"
			/>
		<path class="st1" d="M10.2,35.8c0,0.1-0.2,0.2-0.4,0.1s-0.3-0.2-0.2-0.4s0.2-0.2,0.4-0.1C10.2,35.6,10.3,35.7,10.2,35.8z"/>
		<path class="st1" d="M11.2,36.9c-0.1,0.1-0.3,0.1-0.5-0.1c-0.1-0.1-0.2-0.3-0.1-0.5c0.1-0.1,0.3-0.1,0.5,0.1
			C11.3,36.6,11.3,36.8,11.2,36.9z"/>
		<path class="st1" d="M12.1,38.3c-0.2,0.1-0.4,0-0.5-0.2s-0.1-0.5,0-0.6c0.2-0.1,0.4,0,0.5,0.2C12.3,37.9,12.3,38.2,12.1,38.3z"/>
		<path class="st1" d="M13.4,39.6c-0.1,0.1-0.4,0.1-0.6-0.1c-0.2-0.2-0.3-0.5-0.1-0.6c0.1-0.1,0.4-0.1,0.6,0.1
			C13.5,39.2,13.5,39.5,13.4,39.6z"/>
		<path class="st1" d="M15.2,40.4c-0.1,0.2-0.3,0.3-0.6,0.2s-0.4-0.3-0.4-0.5s0.3-0.3,0.6-0.2S15.2,40.2,15.2,40.4z"/>
		<path class="st1" d="M17.1,40.5c0,0.2-0.2,0.4-0.5,0.4s-0.5-0.2-0.5-0.3s0.2-0.4,0.5-0.4S17.1,40.3,17.1,40.5L17.1,40.5z"/>
		<path class="st1" d="M18.9,40.2c0,0.2-0.2,0.4-0.5,0.4s-0.5-0.1-0.6-0.2c0-0.2,0.2-0.4,0.4-0.5C18.6,39.9,18.9,40,18.9,40.2z"/>
	</g>
</g>
</svg>
