<?xml version="1.0" encoding="utf-8"?>
<!-- Generator: Adobe Illustrator 24.1.3, SVG Export Plug-In . SVG Version: 6.00 Build 0)  -->
<svg version="1.1" id="Layer_1" xmlns="http://www.w3.org/2000/svg" xmlns:xlink="http://www.w3.org/1999/xlink" x="0px" y="0px"
	 viewBox="0 0 500 1000" style="enable-background:new 0 0 500 1000;" xml:space="preserve">
<style type="text/css">
	.st0{fill:#FCD116;}
</style>
<path class="st0" d="M449.83,501l1-1h-2l-24-23.3l-183,13.1l-1-13.1l160-21.2l-17-19.2l-145,27.3c0,0-6-34.3-29-67.7l124-84.8
	l1-28.3l-134,101l-6-8.1l139-123.2v-34.3h-35l-123,139.4l-9-8.1l99-131.3h-28l-83,124.2c0,0-18-18.2-69-28.3l29-149.5l-18-17.2
	l-22,164.7l-11-1l11-186.9l-25-25.2l2,403l0,0v399l25-26l-13-183l13-1l21,160l19-17l-27-145c0,0,34-6,67-29l84,124l28,1l-100-134
	l8-6l122,139h34v-35l-138-123l8-9l130,99v-28l-123-83c0,0,18-18,28-69l148,29l17-18l-163-22l1-11l185,11l23-23h2L449.83,501z"/>
</svg>
