<?xml version="1.0" encoding="utf-8"?>
<!-- Generator: Adobe Illustrator 24.0.3, SVG Export Plug-In . SVG Version: 6.00 Build 0)  -->
<svg version="1.1" id="Layer_1" xmlns="http://www.w3.org/2000/svg" xmlns:xlink="http://www.w3.org/1999/xlink" x="0px" y="0px"
	 viewBox="0 0 50 50" style="enable-background:new 0 0 50 50;" xml:space="preserve">
<style type="text/css">
	.st0{fill:#FFFFFF;}
</style>
<g id="Layer_1_1_">
</g>
<g id="Layer_6">
</g>
<g id="Layer_3">
</g>
<g id="Layer_4">
	<path class="st0" d="M25,5.6c6.3,0,7.1,0,9.6,0.1c1.5,0,3,0.3,4.4,0.8c2.1,0.8,3.7,2.4,4.5,4.5c0.5,1.4,0.8,2.9,0.8,4.4
		c0.1,2.5,0.1,3.3,0.1,9.6s0,7.1-0.1,9.6c0,1.5-0.3,3-0.8,4.4c-0.8,2.1-2.4,3.7-4.5,4.5c-1.4,0.5-2.9,0.8-4.4,0.8
		c-2.5,0.1-3.3,0.1-9.6,0.1c-6.4,0-7.1,0-9.6-0.1c-1.5,0-3-0.3-4.4-0.8C8.8,42.7,7.2,41,6.4,39c-0.5-1.4-0.8-2.9-0.8-4.4
		c-0.1-2.5-0.1-3.3-0.1-9.6s0-7.1,0.1-9.6c0-1.5,0.3-3,0.8-4.4c0.8-2,2.4-3.7,4.5-4.5c1.4-0.5,2.9-0.8,4.4-0.8
		C17.9,5.6,18.5,5.6,25,5.6 M25,1.3c-6.5,0-7.3,0-9.8,0.1c-2,0-3.9,0.4-5.8,1.1c-3.2,1.2-5.8,3.8-7,7c-0.7,1.9-1.1,3.8-1.1,5.8
		c-0.1,2.5-0.1,3.3-0.1,9.8s0,7.3,0.1,9.8c0.1,2,0.5,3.9,1.2,5.7c1.2,3.2,3.8,5.8,7,7c1.9,0.7,3.8,1.1,5.8,1.1
		c2.5,0.1,3.3,0.1,9.8,0.1s7.3,0,9.8-0.1c2,0,3.9-0.4,5.8-1.1c3.2-1.2,5.8-3.8,7-7c0.7-1.9,1.1-3.8,1.1-5.8c0.1-2.5,0.1-3.3,0.1-9.8
		s0-7.3-0.1-9.8c0-2-0.4-3.9-1.1-5.8c-1.2-3.2-3.8-5.8-7-7c-1.9-0.7-3.8-1.1-5.8-1.1C32.3,1.3,31.5,1.2,25,1.3L25,1.3z"/>
	<path class="st0" d="M25,12.9c-6.7,0-12.2,5.5-12.2,12.2S18.2,37.3,25,37.3s12.2-5.5,12.2-12.2l0,0C37.2,18.3,31.7,12.9,25,12.9z
		 M25,33c-4.4,0-7.9-3.6-7.9-7.9s3.6-7.9,7.9-7.9c4.4,0,7.9,3.6,7.9,7.9l0,0C32.8,29.5,29.3,33,25,33L25,33z"/>
	<circle class="st0" cx="37.7" cy="12.4" r="2.9"/>
</g>
<g id="Layer_5">
</g>
<g id="Git">
</g>
</svg>
