<?xml version="1.0" encoding="utf-8"?>
<!-- Generator: Adobe Illustrator 24.0.3, SVG Export Plug-In . SVG Version: 6.00 Build 0)  -->
<svg version="1.1" id="JT" xmlns="http://www.w3.org/2000/svg" xmlns:xlink="http://www.w3.org/1999/xlink" x="0px" y="0px"
	 viewBox="0 0 200 200" style="enable-background:new 0 0 200 200;" xml:space="preserve">
<style type="text/css">
	.st0{fill:#FFFFFF;}
</style>
<path d="M458.2,316.1"/>
<path d="M214.4,373.3"/>
<g>
	<path class="st0" d="M180.1,57.3c6-9,12-18,18-27c-21,0-42,0-63,0h-27h-9v27h9h9v72c0,0,0,23.6,17,36.6c10,7.6,24.3,8.2,28,8.4
		c3.7,0.3,6.8,0.1,9,0c0-12,0-24,0-36c-3,0-6,0-9,0c0,0-9,0-9-9v-72C162.1,57.3,171.1,57.3,180.1,57.3z"/>
	<path class="st0" d="M36.1,30.3c-6,9-12,18-18,27c12,0,24,0,36,0v72c0,0,0,9-9,9s-9-9-9-9h-36c0,0,0,45,45,45s45-45,45-45v-72v-27
		h-18C60.1,30.3,48.1,30.3,36.1,30.3z"/>
</g>
</svg>
