<?xml version="1.0" encoding="utf-8"?>
<!-- Generator: Adobe Illustrator 24.0.3, SVG Export Plug-In . SVG Version: 6.00 Build 0)  -->
<svg version="1.1" id="Layer_1" xmlns="http://www.w3.org/2000/svg" xmlns:xlink="http://www.w3.org/1999/xlink" x="0px" y="0px"
	 viewBox="0 0 50 50" style="enable-background:new 0 0 50 50;" xml:space="preserve">
<style type="text/css">
	.st0{fill:#FFFFFF;}
</style>
<g id="Layer_1_1_">
</g>
<g id="Layer_6">
</g>
<g id="Layer_3">
	<g id="Linkedin-7">
		<path class="st0" d="M2,16.9h9.9v31.7H2V16.9z M6.9,1.2c3.2,0,5.7,2.6,5.7,5.7c0,3.2-2.6,5.7-5.7,5.7c-3.2,0-5.7-2.6-5.7-5.7l0,0
			C1.2,3.7,3.8,1.2,6.9,1.2"/>
		<path class="st0" d="M18.1,16.9h9.4v4.3h0.2c1.9-3.3,5.5-5.3,9.3-5.1c10,0,11.8,6.6,11.8,15.1v17.4h-9.9V33.2
			c0-3.7-0.1-8.4-5.1-8.4s-5.9,4-5.9,8.2v15.7H18L18.1,16.9z"/>
	</g>
</g>
<g id="Layer_4">
</g>
<g id="Layer_5">
</g>
<g id="Git">
</g>
</svg>
