<?xml version="1.0" encoding="utf-8"?>
<!-- Generator: Adobe Illustrator 24.0.3, SVG Export Plug-In . SVG Version: 6.00 Build 0)  -->
<svg version="1.1" id="Layer_1" xmlns="http://www.w3.org/2000/svg" xmlns:xlink="http://www.w3.org/1999/xlink" x="0px" y="0px"
	 viewBox="0 0 50 50" style="enable-background:new 0 0 50 50;" xml:space="preserve">
<style type="text/css">
	.st0{fill:#FFFFFF;}
</style>
<g id="Layer_1_1_">
</g>
<g id="Layer_6">
	<path id="Twitter-8" class="st0" d="M48.8,10.1c-1.8,0.8-3.7,1.3-5.6,1.5c2-1.2,3.6-3.1,4.3-5.4c-1.9,1.1-4,1.9-6.2,2.4
		c-3.7-3.9-9.9-4.1-13.8-0.4c-2,1.8-3.1,4.4-3.1,7.1c0,0.8,0.1,1.5,0.2,2.2C16.8,17.1,9.4,13.4,4.5,7.4c-2.6,4.4-1.3,10.1,3,13
		c-1.6,0-3.1-0.5-4.4-1.2v0.1c0,4.6,3.3,8.7,7.8,9.6c-1.4,0.4-2.9,0.4-4.4,0.2c1.3,4,4.9,6.7,9.1,6.8c-3.5,2.7-7.7,4.2-12.1,4.2
		c-0.8,0-1.6,0-2.3-0.1c4.5,2.9,9.7,4.4,15,4.4c18,0,27.8-14.9,27.8-27.8c0-0.4,0-0.8,0-1.3C45.9,13.8,47.5,12.1,48.8,10.1z"/>
</g>
<g id="Layer_3">
</g>
<g id="Layer_4">
</g>
<g id="Layer_5">
</g>
<g id="Git">
</g>
</svg>
